<svg viewBox="0 0 1280 800" xmlns="http://www.w3.org/2000/svg">
  <rect width="1280" height="800" fill="#FDFCFB" />
  <rect x="0" y="0" width="256" height="800" fill="white" stroke="#E2E8F0" stroke-width="1" />
  <rect x="32" y="32" width="40" height="40" rx="12" fill="#10B981" />
  <text x="84" y="58" font-family="system-ui, sans-serif" font-size="22" font-weight="800" fill="#0F172A">Spendly</text>
  <text x="56" y="128" font-family="system-ui, sans-serif" font-size="14" fill="#64748B">Dashboard</text>
  <text x="56" y="168" font-family="system-ui, sans-serif" font-size="14" fill="#64748B">Insights</text>
  <rect x="16" y="188" width="224" height="44" rx="10" fill="#F0FDF4" />
  <text x="56" y="216" font-family="system-ui, sans-serif" font-size="14" font-weight="600" fill="#10B981">Budget Plan</text>
  <text x="304" y="56" font-family="system-ui, sans-serif" font-size="28" font-weight="700" fill="#0F172A">Budget Plan</text>
  <!-- Salary input -->
  <rect x="304" y="80" width="936" height="80" rx="16" fill="white" stroke="#E2E8F0" stroke-width="1" />
  <text x="324" y="112" font-family="system-ui, sans-serif" font-size="14" fill="#64748B">Monthly Salary</text>
  <rect x="324" y="120" width="200" height="36" rx="8" fill="#F8FAFC" stroke="#E2E8F0" stroke-width="1" />
  <text x="340" y="144" font-family="system-ui, sans-serif" font-size="16" font-weight="600" fill="#0F172A">₹85,000</text>
  <!-- 50/30/20 cards -->
  <rect x="304" y="180" width="300" height="240" rx="16" fill="white" stroke="#E2E8F0" stroke-width="1" />
  <text x="324" y="212" font-family="system-ui, sans-serif" font-size="16" font-weight="700" fill="#10B981">50% Needs</text>
  <text x="324" y="240" font-family="system-ui, sans-serif" font-size="28" font-weight="800" fill="#0F172A">₹42,500</text>
  <rect x="324" y="260" width="260" height="12" rx="6" fill="#F1F5F9" />
  <rect x="324" y="260" width="200" height="12" rx="6" fill="#10B981" />
  <text x="324" y="310" font-family="system-ui, sans-serif" font-size="12" fill="#94A3B8">Spent: ₹32,800 · Remaining: ₹9,700</text>
  <rect x="620" y="180" width="300" height="240" rx="16" fill="white" stroke="#E2E8F0" stroke-width="1" />
  <text x="640" y="212" font-family="system-ui, sans-serif" font-size="16" font-weight="700" fill="#F59E0B">30% Wants</text>
  <text x="640" y="240" font-family="system-ui, sans-serif" font-size="28" font-weight="800" fill="#0F172A">₹25,500</text>
  <rect x="640" y="260" width="260" height="12" rx="6" fill="#F1F5F9" />
  <rect x="640" y="260" width="180" height="12" rx="6" fill="#F59E0B" />
  <text x="640" y="310" font-family="system-ui, sans-serif" font-size="12" fill="#94A3B8">Spent: ₹7,000 · Remaining: ₹18,500</text>
  <rect x="936" y="180" width="300" height="240" rx="16" fill="white" stroke="#E2E8F0" stroke-width="1" />
  <text x="956" y="212" font-family="system-ui, sans-serif" font-size="16" font-weight="700" fill="#3B82F6">20% Savings</text>
  <text x="956" y="240" font-family="system-ui, sans-serif" font-size="28" font-weight="800" fill="#0F172A">₹17,000</text>
  <rect x="956" y="260" width="260" height="12" rx="6" fill="#F1F5F9" />
  <rect x="956" y="260" width="100" height="12" rx="6" fill="#3B82F6" />
  <text x="956" y="310" font-family="system-ui, sans-serif" font-size="12" fill="#94A3B8">Saved: ₹5,400 · Target: ₹17,000</text>
  <!-- Goals section -->
  <rect x="304" y="440" width="936" height="240" rx="16" fill="white" stroke="#E2E8F0" stroke-width="1" />
  <text x="324" y="472" font-family="system-ui, sans-serif" font-size="16" font-weight="600" fill="#0F172A">Spending Goals</text>
  <text x="324" y="510" font-family="system-ui, sans-serif" font-size="14" fill="#64748B">☕ Chai budget: ₹500/mo</text>
  <rect x="324" y="520" width="400" height="8" rx="4" fill="#F1F5F9" />
  <rect x="324" y="520" width="280" height="8" rx="4" fill="#10B981" />
  <text x="324" y="560" font-family="system-ui, sans-serif" font-size="14" fill="#64748B">🛒 Groceries budget: ₹8,000/mo</text>
  <rect x="324" y="570" width="400" height="8" rx="4" fill="#F1F5F9" />
  <rect x="324" y="570" width="350" height="8" rx="4" fill="#F59E0B" />
  <text x="324" y="620" font-family="system-ui, sans-serif" font-size="14" fill="#64748B">🚗 Transport budget: ₹3,000/mo</text>
  <rect x="324" y="630" width="400" height="8" rx="4" fill="#F1F5F9" />
  <rect x="324" y="630" width="120" height="8" rx="4" fill="#3B82F6" />
</svg>
