<svg viewBox="0 0 1280 800" xmlns="http://www.w3.org/2000/svg">
  <rect width="1280" height="800" fill="#FDFCFB" />
  <rect x="0" y="0" width="256" height="800" fill="white" stroke="#E2E8F0" stroke-width="1" />
  <rect x="32" y="32" width="40" height="40" rx="12" fill="#10B981" />
  <text x="84" y="58" font-family="system-ui, sans-serif" font-size="22" font-weight="800" fill="#0F172A">Spendly</text>
  <text x="304" y="56" font-family="system-ui, sans-serif" font-size="28" font-weight="700" fill="#0F172A">Calendar</text>
  <!-- Month header -->
  <text x="304" y="100" font-family="system-ui, sans-serif" font-size="20" font-weight="600" fill="#0F172A">June 2026</text>
  <!-- Day headers -->
  <text x="304" y="150" font-family="system-ui, sans-serif" font-size="13" font-weight="600" fill="#94A3B8">Sun</text>
  <text x="404" y="150" font-family="system-ui, sans-serif" font-size="13" font-weight="600" fill="#94A3B8">Mon</text>
  <text x="504" y="150" font-family="system-ui, sans-serif" font-size="13" font-weight="600" fill="#94A3B8">Tue</text>
  <text x="604" y="150" font-family="system-ui, sans-serif" font-size="13" font-weight="600" fill="#94A3B8">Wed</text>
  <text x="704" y="150" font-family="system-ui, sans-serif" font-size="13" font-weight="600" fill="#94A3B8">Thu</text>
  <text x="804" y="150" font-family="system-ui, sans-serif" font-size="13" font-weight="600" fill="#94A3B8">Fri</text>
  <text x="904" y="150" font-family="system-ui, sans-serif" font-size="13" font-weight="600" fill="#94A3B8">Sat</text>
  <!-- Week 1 -->
  <rect x="304" y="170" width="90" height="80" rx="8" fill="white" stroke="#E2E8F0" stroke-width="1" />
  <text x="314" y="190" font-family="system-ui, sans-serif" font-size="13" fill="#CBD5E1">1</text>
  <rect x="404" y="170" width="90" height="80" rx="8" fill="white" stroke="#E2E8F0" stroke-width="1" />
  <text x="414" y="190" font-family="system-ui, sans-serif" font-size="13" fill="#CBD5E1">2</text>
  <rect x="504" y="170" width="90" height="80" rx="8" fill="white" stroke="#E2E8F0" stroke-width="1" />
  <text x="514" y="190" font-family="system-ui, sans-serif" font-size="13" fill="#0F172A">3</text>
  <rect x="504" y="194" width="80" height="6" rx="3" fill="#EF4444" />
  <!-- Today highlight -->
  <rect x="704" y="170" width="90" height="80" rx="8" fill="#F0FDF4" stroke="#10B981" stroke-width="2" />
  <text x="714" y="190" font-family="system-ui, sans-serif" font-size="13" font-weight="700" fill="#10B981">5</text>
  <circle cx="714" cy="240" r="3" fill="#10B981" />
  <!-- More weeks -->
  <rect x="304" y="260" width="90" height="80" rx="8" fill="white" stroke="#E2E8F0" stroke-width="1" />
  <text x="314" y="280" font-family="system-ui, sans-serif" font-size="13" fill="#0F172A">6</text>
  <rect x="404" y="260" width="90" height="80" rx="8" fill="white" stroke="#E2E8F0" stroke-width="1" />
  <text x="414" y="280" font-family="system-ui, sans-serif" font-size="13" fill="#0F172A">7</text>
  <rect x="504" y="260" width="90" height="80" rx="8" fill="white" stroke="#E2E8F0" stroke-width="1" />
  <text x="514" y="280" font-family="system-ui, sans-serif" font-size="13" fill="#0F172A">8</text>
  <rect x="504" y="284" width="80" height="6" rx="3" fill="#10B981" />
  <rect x="604" y="260" width="90" height="80" rx="8" fill="white" stroke="#E2E8F0" stroke-width="1" />
  <text x="614" y="280" font-family="system-ui, sans-serif" font-size="13" fill="#0F172A">9</text>
  <rect x="704" y="260" width="90" height="80" rx="8" fill="white" stroke="#E2E8F0" stroke-width="1" />
  <text x="714" y="280" font-family="system-ui, sans-serif" font-size="13" fill="#0F172A">10</text>
  <rect x="804" y="260" width="90" height="80" rx="8" fill="white" stroke="#E2E8F0" stroke-width="1" />
  <text x="814" y="280" font-family="system-ui, sans-serif" font-size="13" fill="#0F172A">11</text>
  <rect x="904" y="260" width="90" height="80" rx="8" fill="white" stroke="#E2E8F0" stroke-width="1" />
  <text x="914" y="280" font-family="system-ui, sans-serif" font-size="13" fill="#0F172A">12</text>
  <!-- Day detail panel -->
  <rect x="1020" y="170" width="220" height="300" rx="16" fill="white" stroke="#E2E8F0" stroke-width="1" />
  <text x="1040" y="200" font-family="system-ui, sans-serif" font-size="14" font-weight="600" fill="#0F172A">June 8</text>
  <text x="1040" y="230" font-family="system-ui, sans-serif" font-size="12" fill="#64748B">☕ Chai</text>
  <text x="1200" y="230" font-family="system-ui, sans-serif" font-size="12" fill="#EF4444">-₹30</text>
  <text x="1040" y="258" font-family="system-ui, sans-serif" font-size="12" fill="#64748B">🛒 Groceries</text>
  <text x="1180" y="258" font-family="system-ui, sans-serif" font-size="12" fill="#EF4444">-₹1,200</text>
  <line x1="1040" y1="280" x2="1200" y2="280" stroke="#F1F5F9" stroke-width="1" />
  <text x="1040" y="300" font-family="system-ui, sans-serif" font-size="12" fill="#94A3B8">Day total</text>
  <text x="1040" y="324" font-family="system-ui, sans-serif" font-size="18" font-weight="700" fill="#EF4444">-₹1,230</text>
</svg>
