<svg viewBox="0 0 1280 800" xmlns="http://www.w3.org/2000/svg">
  <rect width="1280" height="800" fill="#FDFCFB" />
  <!-- Sidebar -->
  <rect x="0" y="0" width="256" height="800" fill="white" />
  <rect x="0" y="0" width="256" height="800" stroke="#E2E8F0" stroke-width="1" fill="none" />
  <rect x="32" y="32" width="40" height="40" rx="12" fill="#10B981" />
  <text x="84" y="58" font-family="system-ui, sans-serif" font-size="22" font-weight="800" fill="#0F172A">Spendly</text>
  <!-- Nav items -->
  <rect x="16" y="100" width="224" height="44" rx="10" fill="#F0FDF4" />
  <text x="56" y="128" font-family="system-ui, sans-serif" font-size="14" font-weight="600" fill="#10B981">Dashboard</text>
  <text x="56" y="172" font-family="system-ui, sans-serif" font-size="14" fill="#64748B">Insights</text>
  <text x="56" y="212" font-family="system-ui, sans-serif" font-size="14" fill="#64748B">Budget Plan</text>
  <text x="56" y="252" font-family="system-ui, sans-serif" font-size="14" fill="#64748B">Calendar</text>
  <text x="56" y="292" font-family="system-ui, sans-serif" font-size="14" fill="#64748B">History</text>
  <text x="56" y="332" font-family="system-ui, sans-serif" font-size="14" fill="#64748B">Settings</text>
  <!-- Main area -->
  <text x="304" y="56" font-family="system-ui, sans-serif" font-size="28" font-weight="700" fill="#0F172A">Dashboard</text>
  <!-- Stat cards -->
  <rect x="304" y="80" width="200" height="100" rx="16" fill="white" stroke="#E2E8F0" stroke-width="1" />
  <text x="324" y="112" font-family="system-ui, sans-serif" font-size="12" fill="#94A3B8">Balance</text>
  <text x="324" y="148" font-family="system-ui, sans-serif" font-size="24" font-weight="700" fill="#0F172A">₹45,200</text>
  <rect x="520" y="80" width="200" height="100" rx="16" fill="white" stroke="#E2E8F0" stroke-width="1" />
  <text x="540" y="112" font-family="system-ui, sans-serif" font-size="12" fill="#94A3B8">Income</text>
  <text x="540" y="148" font-family="system-ui, sans-serif" font-size="24" font-weight="700" fill="#10B981">₹85,000</text>
  <rect x="736" y="80" width="200" height="100" rx="16" fill="white" stroke="#E2E8F0" stroke-width="1" />
  <text x="756" y="112" font-family="system-ui, sans-serif" font-size="12" fill="#94A3B8">Expenses</text>
  <text x="756" y="148" font-family="system-ui, sans-serif" font-size="24" font-weight="700" fill="#EF4444">₹39,800</text>
  <rect x="952" y="80" width="200" height="100" rx="16" fill="white" stroke="#E2E8F0" stroke-width="1" />
  <text x="972" y="112" font-family="system-ui, sans-serif" font-size="12" fill="#94A3B8">Savings</text>
  <text x="972" y="148" font-family="system-ui, sans-serif" font-size="24" font-weight="700" fill="#F59E0B">₹5,400</text>
  <!-- Chart area -->
  <rect x="304" y="200" width="580" height="300" rx="16" fill="white" stroke="#E2E8F0" stroke-width="1" />
  <text x="324" y="232" font-family="system-ui, sans-serif" font-size="16" font-weight="600" fill="#0F172A">Spending Trend</text>
  <polyline points="330,440 430,380 530,410 630,340 730,370 830,310" fill="none" stroke="#10B981" stroke-width="3" stroke-linecap="round" stroke-linejoin="round" />
  <polygon points="330,440 430,380 530,410 630,340 730,370 830,310 830,460 330,460" fill="#10B981" fill-opacity="0.08" />
  <!-- Donut -->
  <rect x="900" y="200" width="340" height="300" rx="16" fill="white" stroke="#E2E8F0" stroke-width="1" />
  <text x="920" y="232" font-family="system-ui, sans-serif" font-size="16" font-weight="600" fill="#0F172A">By Category</text>
  <circle cx="1070" cy="350" r="80" fill="none" stroke="#10B981" stroke-width="20" stroke-dasharray="200 302" />
  <circle cx="1070" cy="350" r="80" fill="none" stroke="#14B8A6" stroke-width="20" stroke-dasharray="100 402" stroke-dashoffset="-200" />
  <circle cx="1070" cy="350" r="80" fill="none" stroke="#F59E0B" stroke-width="20" stroke-dasharray="80 422" stroke-dashoffset="-300" />
  <!-- Recent transactions -->
  <rect x="304" y="520" width="936" height="260" rx="16" fill="white" stroke="#E2E8F0" stroke-width="1" />
  <text x="324" y="552" font-family="system-ui, sans-serif" font-size="16" font-weight="600" fill="#0F172A">Recent Transactions</text>
  <text x="324" y="590" font-family="system-ui, sans-serif" font-size="14" fill="#64748B">☕ Chai · 21 Jun</text>
  <text x="1100" y="590" font-family="system-ui, sans-serif" font-size="14" font-weight="600" fill="#EF4444">- ₹30</text>
  <line x1="324" y1="605" x2="1216" y2="605" stroke="#F1F5F9" stroke-width="1" />
  <text x="324" y="630" font-family="system-ui, sans-serif" font-size="14" fill="#64748B">🛒 Groceries · 21 Jun</text>
  <text x="1100" y="630" font-family="system-ui, sans-serif" font-size="14" font-weight="600" fill="#EF4444">- ₹1,200</text>
  <line x1="324" y1="645" x2="1216" y2="645" stroke="#F1F5F9" stroke-width="1" />
  <text x="324" y="670" font-family="system-ui, sans-serif" font-size="14" fill="#64748B">💼 Salary · 1 Jun</text>
  <text x="1100" y="670" font-family="system-ui, sans-serif" font-size="14" font-weight="600" fill="#10B981">+ ₹85,000</text>
</svg>
