<svg viewBox="0 0 1280 800" xmlns="http://www.w3.org/2000/svg">
  <rect width="1280" height="800" fill="#FDFCFB" />
  <rect x="0" y="0" width="256" height="800" fill="white" stroke="#E2E8F0" stroke-width="1" />
  <rect x="32" y="32" width="40" height="40" rx="12" fill="#10B981" />
  <text x="84" y="58" font-family="system-ui, sans-serif" font-size="22" font-weight="800" fill="#0F172A">Spendly</text>
  <text x="304" y="56" font-family="system-ui, sans-serif" font-size="28" font-weight="700" fill="#0F172A">Settings</text>
  <!-- Data Stats -->
  <rect x="304" y="80" width="440" height="160" rx="16" fill="white" stroke="#E2E8F0" stroke-width="1" />
  <text x="324" y="112" font-family="system-ui, sans-serif" font-size="16" font-weight="600" fill="#0F172A">Data Statistics</text>
  <text x="324" y="148" font-family="system-ui, sans-serif" font-size="14" fill="#64748B">Total Transactions</text>
  <text x="660" y="148" font-family="system-ui, sans-serif" font-size="14" font-weight="700" fill="#0F172A">247</text>
  <text x="324" y="176" font-family="system-ui, sans-serif" font-size="14" fill="#64748B">First Entry</text>
  <text x="660" y="176" font-family="system-ui, sans-serif" font-size="14" font-weight="700" fill="#0F172A">Jan 1, 2026</text>
  <text x="324" y="204" font-family="system-ui, sans-serif" font-size="14" fill="#64748B">Storage Used</text>
  <text x="660" y="204" font-family="system-ui, sans-serif" font-size="14" font-weight="700" fill="#0F172A">12 KB</text>
  <!-- Export -->
  <rect x="760" y="80" width="480" height="160" rx="16" fill="white" stroke="#E2E8F0" stroke-width="1" />
  <text x="780" y="112" font-family="system-ui, sans-serif" font-size="16" font-weight="600" fill="#0F172A">Export Data</text>
  <rect x="780" y="128" width="200" height="44" rx="12" fill="#F0FDF4" stroke="#10B981" stroke-width="1" />
  <text x="818" y="156" font-family="system-ui, sans-serif" font-size="14" font-weight="600" fill="#10B981">Download CSV</text>
  <rect x="1000" y="128" width="200" height="44" rx="12" fill="white" stroke="#E2E8F0" stroke-width="1" />
  <text x="1036" y="156" font-family="system-ui, sans-serif" font-size="14" font-weight="600" fill="#64748B">Download JSON</text>
  <!-- Spending Limit -->
  <rect x="304" y="260" width="936" height="120" rx="16" fill="white" stroke="#E2E8F0" stroke-width="1" />
  <text x="324" y="292" font-family="system-ui, sans-serif" font-size="16" font-weight="600" fill="#0F172A">Spending Limit</text>
  <text x="324" y="320" font-family="system-ui, sans-serif" font-size="14" fill="#64748B">Set a daily or monthly spending limit to stay on track.</text>
  <rect x="324" y="336" width="48" height="26" rx="13" fill="#E2E8F0" />
  <rect x="326" y="338" width="22" height="22" rx="11" fill="white" />
  <text x="390" y="354" font-family="system-ui, sans-serif" font-size="13" fill="#94A3B8">Disabled</text>
  <!-- Danger zone -->
  <rect x="304" y="400" width="936" height="100" rx="16" fill="white" stroke="#FEE2E2" stroke-width="1" />
  <text x="324" y="432" font-family="system-ui, sans-serif" font-size="16" font-weight="600" fill="#EF4444">Danger Zone</text>
  <text x="324" y="458" font-family="system-ui, sans-serif" font-size="14" fill="#64748B">Factory reset will delete ALL your data. This cannot be undone.</text>
  <rect x="324" y="468" width="180" height="44" rx="12" fill="#FEF2F2" stroke="#FEE2E2" stroke-width="1" />
  <text x="350" y="496" font-family="system-ui, sans-serif" font-size="14" font-weight="600" fill="#EF4444">Factory Reset</text>
  <!-- About -->
  <rect x="304" y="520" width="936" height="80" rx="16" fill="white" stroke="#E2E8F0" stroke-width="1" />
  <text x="324" y="552" font-family="system-ui, sans-serif" font-size="16" font-weight="600" fill="#0F172A">About Spendly</text>
  <text x="324" y="576" font-family="system-ui, sans-serif" font-size="14" fill="#64748B">Version 1.0.0 · Made with ❤️ in India</text>
</svg>
